<svg width="169" height="24" viewBox="0 0 169 24" fill="none" xmlns="http://www.w3.org/2000/svg">
<path d="M102.247 4.48141V8.39824H106.855V10.1839H102.247V14.2735H107.431V16.0591H100.058V2.6958L107.431 2.6958V4.48141H102.247Z" fill="#3F3F41"/>
<path d="M115.753 14.1007L118.748 5.47982H121.071L117.039 16.0591H114.428L110.415 5.47982H112.757L115.753 14.1007Z" fill="#3F3F41"/>
<path d="M133.958 10.5103C133.958 10.9071 133.932 11.2655 133.881 11.5855H125.798C125.862 12.4303 126.175 13.1087 126.738 13.6207C127.302 14.1327 127.993 14.3887 128.812 14.3887C129.99 14.3887 130.822 13.8959 131.308 12.9103H133.67C133.35 13.8831 132.767 14.6831 131.922 15.3103C131.09 15.9247 130.054 16.2319 128.812 16.2319C127.801 16.2319 126.892 16.0079 126.086 15.5599C125.292 15.0991 124.665 14.4591 124.204 13.6399C123.756 12.8079 123.532 11.8479 123.532 10.7599C123.532 9.67185 123.75 8.71824 124.185 7.89904C124.633 7.06703 125.254 6.42703 126.047 5.97902C126.854 5.53102 127.775 5.30702 128.812 5.30702C129.81 5.30702 130.7 5.52462 131.481 5.95982C132.262 6.39503 132.87 7.00943 133.305 7.80304C133.74 8.58384 133.958 9.48625 133.958 10.5103ZM131.673 9.81905C131.66 9.01264 131.372 8.36624 130.809 7.87984C130.246 7.39343 129.548 7.15023 128.716 7.15023C127.961 7.15023 127.314 7.39343 126.777 7.87984C126.239 8.35344 125.919 8.99984 125.817 9.81905H131.673Z" fill="#3F3F41"/>
<path d="M142.985 5.30702C143.817 5.30702 144.56 5.47982 145.213 5.82542C145.878 6.17102 146.397 6.68303 146.768 7.36143C147.139 8.03984 147.325 8.85904 147.325 9.81905V16.0591H145.155V10.1455C145.155 9.19825 144.918 8.47504 144.445 7.97584C143.971 7.46383 143.325 7.20783 142.505 7.20783C141.686 7.20783 141.033 7.46383 140.547 7.97584C140.073 8.47504 139.837 9.19825 139.837 10.1455V16.0591H137.648V5.47982H139.837V6.68943C140.195 6.25423 140.649 5.91502 141.2 5.67182C141.763 5.42862 142.358 5.30702 142.985 5.30702Z" fill="#3F3F41"/>
<path d="M154.206 7.26543V13.1215C154.206 13.5183 154.296 13.8063 154.475 13.9855C154.667 14.1519 154.987 14.2351 155.435 14.2351H156.779V16.0591H155.051C154.065 16.0591 153.31 15.8287 152.785 15.3679C152.261 14.9071 151.998 14.1583 151.998 13.1215V7.26543H150.75V5.47982H151.998V2.8494H154.206V5.47982H156.779V7.26543H154.206Z" fill="#3F3F41"/>
<path d="M164.172 16.2319C163.34 16.2319 162.592 16.0847 161.926 15.7903C161.273 15.4831 160.755 15.0735 160.371 14.5615C159.987 14.0367 159.782 13.4543 159.756 12.8143H162.022C162.06 13.2623 162.272 13.6399 162.656 13.9471C163.052 14.2415 163.545 14.3887 164.134 14.3887C164.748 14.3887 165.222 14.2735 165.555 14.0431C165.9 13.7999 166.073 13.4927 166.073 13.1215C166.073 12.7247 165.881 12.4303 165.497 12.2383C165.126 12.0463 164.531 11.8351 163.712 11.6047C162.918 11.3871 162.272 11.1759 161.772 10.9711C161.273 10.7663 160.838 10.4527 160.467 10.0303C160.108 9.60785 159.929 9.05104 159.929 8.35984C159.929 7.79664 160.096 7.28463 160.428 6.82383C160.761 6.35023 161.235 5.97902 161.849 5.71022C162.476 5.44142 163.193 5.30702 164 5.30702C165.203 5.30702 166.169 5.61422 166.899 6.22863C167.641 6.83023 168.038 7.65584 168.089 8.70544H165.9C165.862 8.23184 165.67 7.85424 165.324 7.57263C164.979 7.29103 164.512 7.15023 163.923 7.15023C163.347 7.15023 162.905 7.25903 162.598 7.47663C162.291 7.69424 162.137 7.98224 162.137 8.34064C162.137 8.62224 162.24 8.85904 162.444 9.05104C162.649 9.24305 162.899 9.39665 163.193 9.51185C163.488 9.61425 163.923 9.74865 164.499 9.91505C165.267 10.1199 165.894 10.3311 166.38 10.5487C166.88 10.7535 167.308 11.0607 167.667 11.4703C168.025 11.8799 168.211 12.4239 168.224 13.1023C168.224 13.7039 168.057 14.2415 167.724 14.7151C167.392 15.1887 166.918 15.5599 166.304 15.8287C165.702 16.0975 164.992 16.2319 164.172 16.2319Z" fill="#3F3F41"/>
<path d="M7.5118 7.81043H5.27158V17.9491H1.99209V7.81043H0.537109V5.1545H1.99209V4.50784C1.99209 2.93738 2.4386 1.78263 3.3316 1.04359C4.22461 0.304554 5.57182 -0.0418705 7.37323 0.00431978V2.72953C6.588 2.71413 6.04142 2.845 5.73348 3.12214C5.42555 3.39928 5.27158 3.89967 5.27158 4.62332V5.1545H7.5118V7.81043Z" fill="#05B851"/>
<path d="M8.31381 11.5056C8.31381 10.2123 8.56785 9.06525 9.07594 8.06447C9.59943 7.06369 10.3 6.29386 11.1776 5.75497C12.0706 5.21609 13.0637 4.94665 14.1568 4.94665C15.1114 4.94665 15.9429 5.13911 16.6511 5.52402C17.3747 5.90894 17.9521 6.39393 18.3832 6.97901V5.1545H21.6396V17.9491H18.3832V16.0784C17.9675 16.6789 17.3901 17.1793 16.6511 17.5796C15.9275 17.9645 15.0883 18.157 14.1337 18.157C13.056 18.157 12.0706 17.8798 11.1776 17.3256C10.3 16.7713 9.59943 15.9938 9.07594 14.993C8.56785 13.9768 8.31381 12.8143 8.31381 11.5056ZM18.3832 11.5518C18.3832 10.7666 18.2293 10.0968 17.9213 9.54255C17.6134 8.97287 17.1977 8.54177 16.6742 8.24923C16.1507 7.9413 15.5887 7.78733 14.9883 7.78733C14.3878 7.78733 13.8335 7.9336 13.3254 8.22614C12.8173 8.51867 12.4016 8.94978 12.0783 9.51946C11.7704 10.0737 11.6164 10.7358 11.6164 11.5056C11.6164 12.2755 11.7704 12.9529 12.0783 13.538C12.4016 14.1077 12.8173 14.5465 13.3254 14.8544C13.8489 15.1623 14.4032 15.3163 14.9883 15.3163C15.5887 15.3163 16.1507 15.17 16.6742 14.8775C17.1977 14.5696 17.6134 14.1385 17.9213 13.5842C18.2293 13.0145 18.3832 12.337 18.3832 11.5518Z" fill="#05B851"/>
<path d="M38.6278 11.5056C38.6278 10.2123 38.8818 9.06525 39.3899 8.06447C39.9134 7.06369 40.614 6.29386 41.4916 5.75497C42.3846 5.21609 43.3777 4.94665 44.4708 4.94665C45.4254 4.94665 46.2568 5.13911 46.9651 5.52402C47.6887 5.90894 48.2661 6.39393 48.6972 6.97901V5.1545H51.9536V17.9491H48.6972V16.0784C48.2815 16.6789 47.7041 17.1793 46.9651 17.5796C46.2414 17.9645 45.4023 18.157 44.4477 18.157C43.37 18.157 42.3846 17.8798 41.4916 17.3256C40.614 16.7713 39.9134 15.9938 39.3899 14.993C38.8818 13.9768 38.6278 12.8143 38.6278 11.5056ZM48.6972 11.5518C48.6972 10.7666 48.5432 10.0968 48.2353 9.54255C47.9274 8.97287 47.5117 8.54177 46.9882 8.24923C46.4647 7.9413 45.9027 7.78733 45.3022 7.78733C44.7018 7.78733 44.1475 7.9336 43.6394 8.22614C43.1313 8.51867 42.7156 8.94978 42.3923 9.51946C42.0843 10.0737 41.9304 10.7358 41.9304 11.5056C41.9304 12.2755 42.0843 12.9529 42.3923 13.538C42.7156 14.1077 43.1313 14.5465 43.6394 14.8544C44.1629 15.1623 44.7172 15.3163 45.3022 15.3163C45.9027 15.3163 46.4647 15.17 46.9882 14.8775C47.5117 14.5696 47.9274 14.1385 48.2353 13.5842C48.5432 13.0145 48.6972 12.337 48.6972 11.5518Z" fill="#05B851"/>
<path d="M53.8181 11.5056C53.8181 10.2123 54.0722 9.06525 54.5803 8.06447C55.1038 7.06369 55.812 6.29386 56.705 5.75497C57.598 5.21609 58.5911 4.94665 59.6843 4.94665C60.5157 4.94665 61.3086 5.13141 62.0631 5.50093C62.8175 5.85505 63.418 6.33235 63.8645 6.93282V0.858834H67.144V17.9491H63.8645V16.0553C63.4642 16.6866 62.9022 17.1947 62.1785 17.5796C61.4549 17.9645 60.6158 18.157 59.6612 18.157C58.5834 18.157 57.598 17.8798 56.705 17.3256C55.812 16.7713 55.1038 15.9938 54.5803 14.993C54.0722 13.9768 53.8181 12.8143 53.8181 11.5056ZM63.8876 11.5518C63.8876 10.7666 63.7336 10.0968 63.4257 9.54255C63.1177 8.97287 62.702 8.54177 62.1785 8.24923C61.6551 7.9413 61.0931 7.78733 60.4926 7.78733C59.8921 7.78733 59.3379 7.9336 58.8298 8.22614C58.3217 8.51867 57.906 8.94978 57.5826 9.51946C57.2747 10.0737 57.1207 10.7358 57.1207 11.5056C57.1207 12.2755 57.2747 12.9529 57.5826 13.538C57.906 14.1077 58.3217 14.5465 58.8298 14.8544C59.3532 15.1623 59.9075 15.3163 60.4926 15.3163C61.0931 15.3163 61.6551 15.17 62.1785 14.8775C62.702 14.5696 63.1177 14.1385 63.4257 13.5842C63.7336 13.0145 63.8876 12.337 63.8876 11.5518Z" fill="#05B851"/>
<path d="M69.0085 11.5056C69.0085 10.2123 69.2626 9.06525 69.7707 8.06447C70.2941 7.06369 70.9947 6.29386 71.8723 5.75497C72.7653 5.21609 73.7584 4.94665 74.8516 4.94665C75.8061 4.94665 76.6376 5.13911 77.3458 5.52402C78.0695 5.90894 78.6468 6.39393 79.0779 6.97901V5.1545H82.3343V17.9491H79.0779V16.0784C78.6622 16.6789 78.0849 17.1793 77.3458 17.5796C76.6222 17.9645 75.7831 18.157 74.8285 18.157C73.7507 18.157 72.7653 17.8798 71.8723 17.3256C70.9947 16.7713 70.2941 15.9938 69.7707 14.993C69.2626 13.9768 69.0085 12.8143 69.0085 11.5056ZM79.0779 11.5518C79.0779 10.7666 78.924 10.0968 78.616 9.54255C78.3081 8.97287 77.8924 8.54177 77.3689 8.24923C76.8454 7.9413 76.2834 7.78733 75.683 7.78733C75.0825 7.78733 74.5282 7.9336 74.0201 8.22614C73.512 8.51867 73.0963 8.94978 72.773 9.51946C72.4651 10.0737 72.3111 10.7358 72.3111 11.5056C72.3111 12.2755 72.4651 12.9529 72.773 13.538C73.0963 14.1077 73.512 14.5465 74.0201 14.8544C74.5436 15.1623 75.0979 15.3163 75.683 15.3163C76.2834 15.3163 76.8454 15.17 77.3689 14.8775C77.8924 14.5696 78.3081 14.1385 78.616 13.5842C78.924 13.0145 79.0779 12.337 79.0779 11.5518Z" fill="#05B851"/>
<path d="M97.2707 5.1545L89.3491 24H85.9079L88.6793 17.6258L83.5522 5.1545H87.1781L90.4807 14.0923L93.8295 5.1545H97.2707Z" fill="#05B851"/>
<g clip-path="url(#clip0_69_530)">
<path fill-rule="evenodd" clip-rule="evenodd" d="M23.4922 7.06178V16.1821C23.4922 16.7587 23.7228 17.3353 24.1553 17.7005C24.4148 17.9215 24.7319 18.0657 25.126 18.0657H34.7364C35.092 18.0657 35.4091 17.9215 35.6109 17.7678C36.1587 17.3641 36.3605 16.8452 36.3701 16.1725C36.3701 16.1244 36.3797 16.1052 36.3797 16.0571V15.9802C36.3701 14.2311 36.3797 12.4628 36.3797 10.7041C35.9281 10.8579 35.4283 11.0501 35.1496 11.1943C35.1208 11.2039 35.092 11.2135 35.0631 11.2327V14.2792C35.0631 14.4522 35.0535 14.606 35.0535 14.7693C35.0535 15.0961 35.0535 15.4324 35.0535 15.7688C35.0535 16.4127 35.1016 16.7491 34.5634 16.7779C34.4769 16.7779 34.4 16.7683 34.3231 16.7779C34.1213 16.8067 26.8847 16.7875 26.6828 16.7875C26.481 16.7875 26.308 16.7779 26.1158 16.7779C25.8467 16.7779 25.2413 16.8067 25.0299 16.7106C24.8953 16.653 24.8184 16.5184 24.8184 16.3358C24.8184 16.2878 24.8088 16.2686 24.8088 16.2109C24.8088 16.1628 24.8088 16.1148 24.8088 16.0667C24.8088 15.961 24.7992 15.8841 24.7992 15.788L24.7896 12.8569C24.7896 12.4436 24.7992 12.0592 24.7992 11.6556V9.8488C24.7992 9.63737 24.8088 9.46439 24.8088 9.25296V7.4462C24.8088 7.22516 24.7896 6.8023 24.9434 6.66776C25.0779 6.54282 25.2413 6.54282 25.4239 6.54282C25.4912 6.54282 25.5104 6.53321 25.568 6.53321C27.9802 6.50438 30.4597 6.53321 32.8623 6.53321C33.1603 6.53321 34.4673 6.51399 34.6979 6.56204C34.8805 6.60048 34.9958 6.68698 35.0343 6.86958C35.0631 7.05217 35.0343 7.27321 35.0535 7.46542C35.0727 7.65763 35.0631 7.88828 35.0631 8.0901C35.0631 8.31114 35.0727 8.49373 35.0727 8.70516V9.22413C35.4764 9.06075 35.8992 8.90698 36.3125 8.79166L36.3797 8.76283V7.41737C36.3797 6.92724 36.3221 6.40828 36.0626 6.01425C36.0338 5.95659 35.9953 5.91815 35.9569 5.86048C35.6686 5.49529 35.092 5.2262 34.6114 5.2262H25.2797C25.0395 5.2262 24.7608 5.30308 24.5397 5.38957C23.8766 5.66827 23.4922 6.33139 23.4922 7.06178Z" fill="#05B851"/>
<path fill-rule="evenodd" clip-rule="evenodd" d="M30.46 12.2693C30.3927 12.2212 30.2101 12.029 30.1428 11.9521C29.9794 11.7984 29.8161 11.6446 29.6335 11.5197L29.5374 11.4524C29.5085 11.4332 29.4701 11.414 29.4413 11.3947C29.4124 11.3659 29.374 11.3467 29.3451 11.3275C28.9319 11.1257 28.5283 10.9815 28.0574 10.8566C27.6441 10.7605 27.1732 10.6451 26.7311 10.6932C26.6831 10.7028 26.635 10.7124 26.587 10.722C26.587 10.8854 26.5773 11.0103 26.5773 11.1737C26.5773 11.3179 26.5581 11.4812 26.5581 11.6254C26.5581 11.9329 26.5293 12.2309 26.5293 12.5384C26.5677 12.5384 26.5677 12.5288 26.6158 12.5288C27.202 12.5288 27.4519 12.5384 27.9805 12.7402C28.3072 12.8555 28.6051 13.0477 28.8646 13.2688C28.8838 13.288 28.8935 13.2976 28.9127 13.3168C29.0088 13.3841 29.1049 13.4898 29.1818 13.5763L29.2683 13.682C29.4989 13.9607 29.6719 14.2106 29.8449 14.5277C30.0179 14.8545 30.1524 15.1909 30.2677 15.5368C30.2774 15.5849 30.2966 15.6522 30.3158 15.6906C30.3735 15.6618 30.46 15.6425 30.5272 15.6233L31.1807 15.4119C31.2576 15.3831 31.3249 15.3638 31.3922 15.3446L31.8342 15.2005C31.9015 15.1812 31.9976 15.162 32.0553 15.1332C32.0553 15.1044 32.0457 15.0659 32.0457 15.0275C32.0265 14.8641 31.9976 14.6815 31.9976 14.5085C31.9976 14.4605 31.988 14.4509 31.988 14.4028C31.9688 13.8646 32.0168 13.3937 32.1898 12.8844C32.2955 12.5576 32.4589 12.2693 32.6511 11.9906L32.7857 11.808C32.901 11.6734 33.1124 11.4332 33.247 11.3275C33.3815 11.2121 33.5161 11.0968 33.6602 10.9815L33.8524 10.847C33.987 10.7508 34.1215 10.6644 34.2657 10.5875C34.4483 10.4721 34.727 10.3088 34.9288 10.2319C34.9672 10.2127 34.9961 10.1934 35.0345 10.1742C35.073 10.155 35.1114 10.1454 35.1498 10.1262C35.6111 9.89552 36.6491 9.53033 37.1296 9.39578L37.6485 9.24202C37.735 9.21318 37.8215 9.18435 37.9176 9.16513C37.8888 9.11708 37.7062 8.34825 37.687 8.27136L37.514 7.60825C37.4948 7.54097 37.4852 7.44487 37.4563 7.38721C37.341 7.39682 36.4184 7.68513 36.3127 7.72357C35.813 7.86773 35.294 8.05994 34.8135 8.26175C34.7654 8.28097 34.727 8.3002 34.6789 8.31942L34.2945 8.48279C34.2561 8.51162 34.2176 8.53085 34.1696 8.55007C34.0831 8.5789 33.9966 8.62695 33.9197 8.66539C33.6794 8.79994 33.4392 8.92487 33.2085 9.07864C32.9106 9.27085 32.6223 9.47267 32.3436 9.6937C32.2475 9.7802 32.1418 9.85708 32.0457 9.95319C32.0168 9.99163 31.988 10.0108 31.9496 10.0397C31.7958 10.1934 31.6324 10.3472 31.4979 10.5202L31.2576 10.8277C30.9789 11.1929 30.7483 11.5773 30.5657 11.9906C30.5368 12.0483 30.46 12.202 30.46 12.2693Z" fill="#05B851"/>
</g>
<path d="M89.3974 1.24907H88.3999V4H87.8484V1.24907H86.8596V0.800834H89.3974V1.24907ZM87.8066 5.80083L88.7295 8.25294L89.6501 5.80083H90.3686V9H89.8149V7.94533L89.8698 6.53471L88.925 9H88.5273L87.5847 6.53691L87.6396 7.94533V9H87.0859V5.80083H87.8066Z" fill="#05B851"/>
<defs>
<clipPath id="clip0_69_530">
<rect width="14.4252" height="12.8413" fill="white" transform="translate(23.4922 5.22388)"/>
</clipPath>
</defs>
</svg>
